<svg width="22" height="23" viewBox="0 0 22 23" fill="none" xmlns="http://www.w3.org/2000/svg">
<path d="M6.58325 22.75C5.98742 22.75 5.47717 22.5295 5.0525 22.0885C4.62784 21.6475 4.41586 21.118 4.41659 20.5C4.41659 19.8813 4.62892 19.3514 5.05359 18.9104C5.47825 18.4694 5.98814 18.2493 6.58325 18.25C7.17909 18.25 7.68934 18.4705 8.114 18.9115C8.53867 19.3525 8.75064 19.882 8.74992 20.5C8.74992 21.1187 8.53759 21.6486 8.11292 22.0896C7.68825 22.5306 7.17836 22.7507 6.58325 22.75ZM17.4166 22.75C16.8208 22.75 16.3105 22.5295 15.8858 22.0885C15.4612 21.6475 15.2492 21.118 15.2499 20.5C15.2499 19.8813 15.4623 19.3514 15.8869 18.9104C16.3116 18.4694 16.8215 18.2493 17.4166 18.25C18.0124 18.25 18.5227 18.4705 18.9473 18.9115C19.372 19.3525 19.584 19.882 19.5833 20.5C19.5833 21.1187 19.3709 21.6486 18.9463 22.0896C18.5216 22.5306 18.0117 22.7507 17.4166 22.75ZM4.63325 2.5H20.6124C21.0277 2.5 21.3437 2.69237 21.5603 3.07713C21.777 3.46187 21.786 3.85075 21.5874 4.24375L17.7416 11.4437C17.543 11.8187 17.2765 12.1094 16.9421 12.3156C16.6077 12.5219 16.2423 12.625 15.8458 12.625H7.77492L6.58325 14.875H19.5833V17.125H6.58325C5.77075 17.125 5.15686 16.7545 4.74159 16.0135C4.32631 15.2725 4.30825 14.5367 4.68742 13.8063L6.14992 11.05L2.24992 2.5H0.083252V0.25H3.60409L4.63325 2.5Z" fill="white"/>
</svg>
