<svg width="26" height="27" viewBox="0 0 26 27" fill="none" xmlns="http://www.w3.org/2000/svg">
<path d="M7.58334 24.75C6.98751 24.75 6.47726 24.5295 6.05259 24.0885C5.62793 23.6475 5.41595 23.118 5.41668 22.5C5.41668 21.8813 5.62901 21.3514 6.05368 20.9104C6.47834 20.4694 6.98823 20.2493 7.58334 20.25C8.17918 20.25 8.68943 20.4705 9.11409 20.9115C9.53876 21.3525 9.75073 21.882 9.75001 22.5C9.75001 23.1187 9.53768 23.6486 9.11301 24.0896C8.68834 24.5306 8.17845 24.7507 7.58334 24.75ZM18.4167 24.75C17.8208 24.75 17.3106 24.5295 16.8859 24.0885C16.4613 23.6475 16.2493 23.118 16.25 22.5C16.25 21.8813 16.4623 21.3514 16.887 20.9104C17.3117 20.4694 17.8216 20.2493 18.4167 20.25C19.0125 20.25 19.5228 20.4705 19.9474 20.9115C20.3721 21.3525 20.5841 21.882 20.5833 22.5C20.5833 23.1187 20.371 23.6486 19.9463 24.0896C19.5217 24.5306 19.0118 24.7507 18.4167 24.75ZM5.63334 4.5H21.6125C22.0278 4.5 22.3438 4.69237 22.5604 5.07713C22.7771 5.46187 22.7861 5.85075 22.5875 6.24375L18.7417 13.4437C18.5431 13.8187 18.2766 14.1094 17.9422 14.3156C17.6078 14.5219 17.2423 14.625 16.8458 14.625H8.77501L7.58334 16.875H20.5833V19.125H7.58334C6.77084 19.125 6.15695 18.7545 5.74168 18.0135C5.3264 17.2725 5.30834 16.5367 5.68751 15.8063L7.15001 13.05L3.25001 4.5H1.08334V2.25H4.60418L5.63334 4.5Z" fill="black"/>
</svg>
