<svg width="64" height="64" viewBox="0 0 64 64" fill="none" xmlns="http://www.w3.org/2000/svg">
<g clip-path="url(#clip0_159_44)">
<path fill-rule="evenodd" clip-rule="evenodd" d="M44.4533 35.0133C48.1066 37.4933 50.6666 40.8533 50.6666 45.3333V53.3333H61.3333V45.3333C61.3333 39.52 51.8133 36.08 44.4533 35.0133Z" fill="#514EF4"/>
<path d="M24 32C29.891 32 34.6666 27.2243 34.6666 21.3333C34.6666 15.4423 29.891 10.6666 24 10.6666C18.1089 10.6666 13.3333 15.4423 13.3333 21.3333C13.3333 27.2243 18.1089 32 24 32Z" fill="#514EF4"/>
<path fill-rule="evenodd" clip-rule="evenodd" d="M40 32C45.8934 32 50.6667 27.2266 50.6667 21.3333C50.6667 15.44 45.8934 10.6666 40 10.6666C38.7467 10.6666 37.5734 10.9333 36.4534 11.3066C38.7481 14.1445 39.9999 17.6837 39.9999 21.3333C39.9999 24.9829 38.7481 28.522 36.4534 31.36C37.5734 31.7333 38.7467 32 40 32ZM24 34.6666C16.88 34.6666 2.66669 38.24 2.66669 45.3333V53.3333H45.3334V45.3333C45.3334 38.24 31.12 34.6666 24 34.6666Z" fill="#514EF4"/>
</g>
<defs>
<clipPath id="clip0_159_44">
<rect width="64" height="64" fill="white"/>
</clipPath>
</defs>
</svg>
