<svg width="49" height="49" viewBox="0 0 49 49" fill="none" xmlns="http://www.w3.org/2000/svg">
<path d="M41.293 7.7595L41.2405 7.7455L38.563 6.8775C37.7479 6.60694 37.0072 6.15002 36.3996 5.54306C35.792 4.93609 35.3344 4.1958 35.063 3.381L34.195 0.707001C34.1225 0.500263 33.9876 0.321147 33.8089 0.194424C33.6302 0.0677017 33.4166 -0.000366211 33.1975 -0.000366211C32.9784 -0.000366211 32.7648 0.0677017 32.5861 0.194424C32.4074 0.321147 32.2725 0.500263 32.2 0.707001L31.325 3.381C31.0601 4.18971 30.6117 4.92617 30.0148 5.53275C29.4179 6.13933 28.6888 6.59958 27.8845 6.8775L25.8055 7.553H25.795L25.193 7.7455C24.9863 7.81848 24.8076 7.95433 24.682 8.134C24.5863 8.26696 24.523 8.42047 24.4972 8.58226C24.4715 8.74405 24.4839 8.90962 24.5335 9.06574C24.5832 9.22186 24.6687 9.3642 24.7832 9.48136C24.8977 9.59853 25.0381 9.68727 25.193 9.7405L27.8775 10.612L28.168 10.717L28.196 10.724C28.9406 11.025 29.6106 11.4846 30.1595 12.071C30.7083 12.6573 31.1228 13.3562 31.374 14.119L32.249 16.793C32.3204 16.9997 32.4546 17.1789 32.6328 17.3056C32.811 17.4324 33.0243 17.5003 33.243 17.5H33.2605C33.4771 17.4972 33.6876 17.4278 33.8636 17.3013C34.0395 17.1749 34.1723 16.9974 34.244 16.793L35.1155 14.119C35.386 13.3043 35.843 12.564 36.45 11.957C37.057 11.35 37.7973 10.893 38.612 10.6225L41.2895 9.7545C41.4947 9.68044 41.672 9.54493 41.7973 9.36643C41.9227 9.18792 41.9899 8.97512 41.9899 8.757C41.9899 8.53889 41.9227 8.32608 41.7973 8.14758C41.672 7.96907 41.4947 7.83356 41.2895 7.7595H41.293ZM46.249 19.502L48.391 20.1985L48.4365 20.209C48.6001 20.2683 48.7414 20.3766 48.8413 20.519C48.9411 20.6615 48.9947 20.8313 48.9947 21.0053C48.9947 21.1792 48.9411 21.349 48.8413 21.4915C48.7414 21.6339 48.6001 21.7422 48.4365 21.8015L46.291 22.5015C45.64 22.7179 45.0483 23.083 44.5629 23.5678C44.0775 24.0526 43.7117 24.6438 43.4945 25.2945L42.798 27.4365C42.738 27.605 42.626 27.75 42.4781 27.8507C42.3303 27.9514 42.1543 28.0024 41.9755 27.9965C41.8029 27.9959 41.6348 27.9417 41.4943 27.8413C41.3539 27.741 41.2481 27.5996 41.1915 27.4365L40.4915 25.2945C40.2744 24.6424 39.9083 24.0498 39.4223 23.5637C38.9362 23.0777 38.3436 22.7116 37.6915 22.4945L35.546 21.7945C35.3805 21.7374 35.2372 21.6296 35.1365 21.4865C35.0667 21.3769 35.0222 21.2532 35.0061 21.1242C34.9901 20.9953 35.003 20.8644 35.0439 20.741C35.0848 20.6177 35.1527 20.505 35.2425 20.4112C35.3324 20.3173 35.442 20.2447 35.5635 20.1985L37.709 19.4985C38.3524 19.2768 38.9358 18.9094 39.4136 18.4248C39.8914 17.9403 40.2508 17.3519 40.4635 16.7055L41.16 14.5635C41.2186 14.3987 41.3268 14.2562 41.4697 14.1554C41.6125 14.0545 41.7831 14.0004 41.958 14.0004C42.1329 14.0004 42.3035 14.0545 42.4463 14.1554C42.5892 14.2562 42.6974 14.3987 42.756 14.5635L43.4525 16.7055C43.6688 17.3572 44.0342 17.9493 44.5197 18.4348C45.0052 18.9203 45.5973 19.2857 46.249 19.502ZM21 49C25.965 48.9998 30.7695 47.2409 34.5612 44.0355C38.3528 40.8301 40.8866 36.3853 41.713 31.4895C40.8538 31.4295 40.0319 31.1147 39.3524 30.5854C38.6729 30.0562 38.1665 29.3364 37.898 28.518L37.198 26.39C37.1527 26.2581 37.0777 26.1384 36.9788 26.04C36.8799 25.9417 36.7597 25.8675 36.6275 25.823L34.398 25.102C33.5499 24.8022 32.8157 24.2466 32.2966 23.5119C31.7776 22.7772 31.4993 21.8996 31.5 21V20.65C30.8969 20.3998 30.3546 20.0228 29.9102 19.5445C29.4657 19.0662 29.1293 18.4978 28.924 17.878L28.056 15.2145C27.9625 14.9133 27.7953 14.6402 27.5695 14.42C27.3514 14.2069 27.09 14.0434 26.803 13.9405L24.0415 13.041C23.4576 12.836 22.9216 12.514 22.4664 12.0947C22.0111 11.6754 21.6462 11.1677 21.394 10.6026C21.1417 10.0374 21.0074 9.42676 20.9992 8.80792C20.9911 8.18909 21.1092 7.5751 21.3465 7.0035L21 7C18.2422 7 15.5115 7.54318 12.9636 8.59853C10.4158 9.65388 8.10079 11.2007 6.15076 13.1508C4.20073 15.1008 2.65388 17.4158 1.59853 19.9636C0.543181 22.5115 0 25.2422 0 28C0 30.7578 0.543181 33.4885 1.59853 36.0364C2.65388 38.5842 4.20073 40.8992 6.15076 42.8492C8.10079 44.7993 10.4158 46.3461 12.9636 47.4015C15.5115 48.4568 18.2422 49 21 49ZM14.875 27.125C14.1788 27.125 13.5111 26.8484 13.0188 26.3562C12.5266 25.8639 12.25 25.1962 12.25 24.5C12.25 23.8038 12.5266 23.1361 13.0188 22.6438C13.5111 22.1516 14.1788 21.875 14.875 21.875C15.5712 21.875 16.2389 22.1516 16.7312 22.6438C17.2234 23.1361 17.5 23.8038 17.5 24.5C17.5 25.1962 17.2234 25.8639 16.7312 26.3562C16.2389 26.8484 15.5712 27.125 14.875 27.125ZM14.476 33.8345C15.2961 34.7534 16.3014 35.4882 17.4259 35.9907C18.5503 36.4932 19.7684 36.752 21 36.75C23.59 36.75 25.9175 35.6265 27.524 33.8345C27.6766 33.6608 27.8621 33.5191 28.0698 33.4176C28.2774 33.316 28.5032 33.2566 28.7339 33.2428C28.9647 33.229 29.1959 33.261 29.4142 33.3371C29.6326 33.4131 29.8336 33.5317 30.0059 33.6859C30.1781 33.8401 30.3181 34.0269 30.4177 34.2355C30.5173 34.4441 30.5747 34.6704 30.5863 34.9012C30.598 35.1321 30.5638 35.363 30.4858 35.5806C30.4077 35.7982 30.2873 35.9982 30.1315 36.169C28.9832 37.4545 27.5759 38.4827 26.0022 39.1861C24.4284 39.8894 22.7238 40.252 21 40.25C19.2762 40.252 17.5716 39.8894 15.9978 39.1861C14.4241 38.4827 13.0168 37.4545 11.8685 36.169C11.564 35.8225 11.4086 35.3697 11.4362 34.9092C11.4638 34.4487 11.6721 34.0177 12.0158 33.71C12.3595 33.4023 12.8108 33.2428 13.2715 33.2661C13.7322 33.2894 14.1651 33.4937 14.476 33.8345ZM27.125 27.125C26.4288 27.125 25.7611 26.8484 25.2688 26.3562C24.7766 25.8639 24.5 25.1962 24.5 24.5C24.5 23.8038 24.7766 23.1361 25.2688 22.6438C25.7611 22.1516 26.4288 21.875 27.125 21.875C27.8212 21.875 28.4889 22.1516 28.9812 22.6438C29.4734 23.1361 29.75 23.8038 29.75 24.5C29.75 25.1962 29.4734 25.8639 28.9812 26.3562C28.4889 26.8484 27.8212 27.125 27.125 27.125Z" fill="#514EF4"/>
</svg>
