<svg width="56" height="56" viewBox="0 0 56 56" fill="none" xmlns="http://www.w3.org/2000/svg">
<g clip-path="url(#clip0_159_52)">
<path fill-rule="evenodd" clip-rule="evenodd" d="M30.8747 3.17331C32.3493 1.40464 35.2217 2.61331 34.9883 4.90464L33.341 21H46.6667C47.11 21.0001 47.5442 21.1266 47.9183 21.3646C48.2923 21.6026 48.5909 21.9422 48.7789 22.3438C48.9669 22.7453 49.0367 23.1921 48.9799 23.6318C48.9232 24.0715 48.7424 24.486 48.4587 24.8266L25.1253 52.8266C23.6507 54.5953 20.7783 53.3866 21.0117 51.0953L22.659 35H9.33333C8.88996 34.9998 8.45582 34.8733 8.08174 34.6353C7.70766 34.3974 7.40912 34.0577 7.2211 33.6562C7.03307 33.2547 6.96333 32.8079 7.02004 32.3682C7.07675 31.9284 7.25758 31.514 7.54133 31.1733L30.8747 3.17331Z" fill="#514EF4"/>
</g>
<defs>
<clipPath id="clip0_159_52">
<rect width="56" height="56" fill="white"/>
</clipPath>
</defs>
</svg>
